<svg xmlns="http://www.w3.org/2000/svg" width="12.591" height="12.591" viewBox="0 0 12.591 12.591">
  <g id="series" transform="translate(0 0.001)">
    <path id="Path_91835" data-name="Path 91835" d="M157.975,277.951l-.736-.736-1.043,1.043.736.736a1.476,1.476,0,0,1-2.087,2.087l-3.866-3.866-1.043,1.043,3.866,3.866a2.951,2.951,0,0,0,4.173-4.173Zm0,0" transform="translate(-146.248 -270.398)" fill="#26b888"/>
    <path id="Path_91836" data-name="Path 91836" d="M3.994,10.683A1.476,1.476,0,0,1,1.908,8.6L5.774,4.73,4.731,3.687.864,7.553a2.951,2.951,0,0,0,4.173,4.173l.736-.736L4.731,9.947ZM8.6,1.907a1.476,1.476,0,0,1,2.087,2.087L6.817,7.86,7.861,8.9l3.866-3.866A2.951,2.951,0,0,0,7.553.864L6.817,1.6,7.861,2.643Zm0,0" transform="translate(0 0)" fill="#26b888"/>
    <path id="Path_91837" data-name="Path 91837" d="M1.6,5.774,2.644,4.731l-.736-.736A1.476,1.476,0,0,1,3.995,1.908L8.014,5.927,9.057,4.883,5.038.864A2.951,2.951,0,0,0,.865,5.038Zm0,0" transform="translate(0 -0.001)" fill="#26b888"/>
  </g>
</svg>
