<svg xmlns="http://www.w3.org/2000/svg" width="24" height="24" viewBox="0 0 24 24">
  <g id="Group_23409" data-name="Group 23409" transform="translate(-333 -645)">
    <rect id="Rectangle_55618" data-name="Rectangle 55618" width="24" height="24" transform="translate(333 645)" fill="none"/>
    <g id="langauge" transform="translate(324.51 636.51)">
      <g id="Layer_2" data-name="Layer 2" transform="translate(5.5 5.5)">
        <path id="Path_47688" data-name="Path 47688" d="M21.011,18.241a8.332,8.332,0,0,0,1.231-4.37h0A8.332,8.332,0,0,0,21.011,9.5l0-.007a8.372,8.372,0,0,0-14.271,0l0,.007a8.374,8.374,0,0,0,0,8.741l0,.007a8.372,8.372,0,0,0,14.271,0Zm-6.07,2.566a2.034,2.034,0,0,1-.544.375,1.227,1.227,0,0,1-1.053,0,2.562,2.562,0,0,1-.95-.836A7.482,7.482,0,0,1,11.314,18q1.277-.079,2.557-.08t2.557.08a9.443,9.443,0,0,1-.459,1.263,4.854,4.854,0,0,1-1.029,1.544ZM6.457,14.341H9.833a16.611,16.611,0,0,0,.305,2.806q-1.384.122-2.762.335a7.38,7.38,0,0,1-.92-3.14Zm.92-4.081q1.377.213,2.763.335A16.583,16.583,0,0,0,9.834,13.4H6.457a7.38,7.38,0,0,1,.92-3.14ZM12.8,6.935a2.034,2.034,0,0,1,.544-.375,1.227,1.227,0,0,1,1.053,0,2.562,2.562,0,0,1,.95.836,7.482,7.482,0,0,1,1.081,2.346q-1.277.079-2.557.08t-2.557-.08a9.441,9.441,0,0,1,.459-1.263A4.854,4.854,0,0,1,12.8,6.935ZM21.285,13.4H17.909A16.613,16.613,0,0,0,17.6,10.6q1.385-.122,2.762-.335A7.38,7.38,0,0,1,21.285,13.4Zm-10.2,3.673a15.556,15.556,0,0,1-.31-2.732h6.194a15.553,15.553,0,0,1-.31,2.732q-1.392-.091-2.787-.093T11.085,17.074Zm5.573-6.406a15.558,15.558,0,0,1,.31,2.732H10.774a15.553,15.553,0,0,1,.31-2.733q1.392.091,2.787.093T16.658,10.668Zm1.251,3.673h3.377a7.38,7.38,0,0,1-.92,3.14q-1.377-.213-2.763-.335a16.582,16.582,0,0,0,.306-2.806ZM19.8,9.395q-1.2.174-2.415.275a10.726,10.726,0,0,0-.56-1.579,6.674,6.674,0,0,0-.779-1.325A7.429,7.429,0,0,1,19.8,9.395ZM8.617,8.617a7.428,7.428,0,0,1,3.077-1.852c-.018.023-.036.045-.053.068A8.586,8.586,0,0,0,10.357,9.67q-1.211-.1-2.417-.275a7.492,7.492,0,0,1,.676-.778Zm-.676,9.73q1.2-.174,2.415-.275a10.726,10.726,0,0,0,.56,1.579,6.675,6.675,0,0,0,.779,1.325,7.429,7.429,0,0,1-3.753-2.63Zm11.185.778a7.428,7.428,0,0,1-3.077,1.852c.018-.023.036-.045.053-.068a8.586,8.586,0,0,0,1.283-2.837q1.211.1,2.417.275a7.492,7.492,0,0,1-.676.778Z" transform="translate(1.119 1.119)" fill="#26b888"/>
      </g>
    </g>
  </g>
</svg>
